<svg width="16" height="23" viewBox="0 0 16 23" fill="none" xmlns="http://www.w3.org/2000/svg">
<mask id="mask0_2290_17980" style="mask-type:luminance" maskUnits="userSpaceOnUse" x="0" y="0" width="16" height="23">
<path d="M15.3873 0H0V23H15.3873V0Z" fill="white"/>
</mask>
<g mask="url(#mask0_2290_17980)">
<path d="M7.973 -0.000110683C7.11155 0.000139685 6.28546 0.34194 5.67632 0.950152C5.06719 1.55836 4.72488 2.38321 4.72462 3.24334V4.71679H3.24894C2.82205 4.71643 2.39927 4.80014 2.0048 4.9631C1.61034 5.12606 1.25193 5.36509 0.950079 5.66651C0.648227 5.96791 0.40886 6.3258 0.245672 6.71966C0.0824845 7.11355 -0.00132009 7.53569 -0.00094687 7.96194V11.2043H4.72386V14.1511H3.24818C2.38649 14.151 1.56004 14.4927 0.950588 15.1009C0.341137 15.7092 -0.00140798 16.5342 -0.00170898 17.3945V22.9981H3.2497C3.67619 22.998 4.09845 22.9139 4.4924 22.7506C4.88633 22.5875 5.24421 22.3485 5.54562 22.0472C5.84702 21.7459 6.08602 21.3883 6.249 20.9947C6.41196 20.6011 6.4957 20.1795 6.49542 19.7537H6.49959V17.6129L6.49089 17.614V3.97534L6.49808 3.97704V3.24391C6.49883 2.85299 6.65442 2.47824 6.93089 2.20144C7.20734 1.92465 7.58224 1.7683 7.97376 1.7665H13.6171V3.24391C13.6159 3.63465 13.4598 4.00902 13.1829 4.28513C12.906 4.56124 12.5309 4.71666 12.1395 4.71735H7.16592V6.48586H12.1388C13.0002 6.48591 13.8264 6.14428 14.4356 5.53612C15.0448 4.92797 15.387 4.10311 15.3871 3.24297V-0.000488281L7.973 -0.000110683ZM4.72462 9.43556H1.77213V7.96212C1.77278 7.57075 1.92855 7.19554 2.20542 6.91849C2.48228 6.64145 2.85773 6.48508 3.2497 6.48359H4.72538L4.72462 9.43556ZM4.72462 19.7553C4.72397 20.146 4.56833 20.5206 4.29178 20.7969C4.01521 21.0734 3.64025 21.2292 3.24894 21.2302H1.77137V17.3955C1.77173 17.0045 1.92758 16.6297 2.20465 16.3534C2.48173 16.0771 2.85734 15.9219 3.24894 15.9221H4.72462V19.7553ZM7.16592 11.2041H10.8929V12.679C10.8915 13.0697 10.7353 13.4439 10.4585 13.72C10.1816 13.996 9.80663 14.1515 9.41537 14.1525H7.16592V15.9221H9.41613C9.84278 15.9223 10.2653 15.8386 10.6595 15.6757C11.0537 15.5127 11.4119 15.2738 11.7136 14.9726C12.0153 14.6714 12.2545 14.3137 12.4177 13.9201C12.5809 13.5265 12.6647 13.1046 12.6645 12.6786H12.666V9.43519H7.16592V11.2041Z" fill="url(#paint0_linear_2290_17980)"/>
</g>
<defs>
<linearGradient id="paint0_linear_2290_17980" x1="-5.67135" y1="-5.67134" x2="17.7359" y2="10.5585" gradientUnits="userSpaceOnUse">
<stop stop-color="#1659DA"/>
<stop offset="1" stop-color="#16CFDA"/>
</linearGradient>
</defs>
</svg>
