<svg width="156" height="33" viewBox="0 0 156 33" fill="none" xmlns="http://www.w3.org/2000/svg">
<mask id="mask0_1985_3618" style="mask-type:luminance" maskUnits="userSpaceOnUse" x="0" y="3" width="20" height="27">
<path d="M19.0316 3H0.968262V30H19.0316V3Z" fill="white"/>
</mask>
<g mask="url(#mask0_1985_3618)">
<path d="M10.3279 3.00044C9.31666 3.00074 8.3469 3.40198 7.63182 4.11597C6.91675 4.82996 6.51491 5.79825 6.51461 6.80798V8.53767H4.78229C4.28116 8.53725 3.78485 8.63552 3.32178 8.82682C2.85872 9.01812 2.43797 9.29873 2.08363 9.65256C1.72928 10.0064 1.44828 10.4265 1.25671 10.8889C1.06514 11.3513 0.966765 11.8468 0.967203 12.3472V16.1534H6.51371V19.6128H4.7814C3.76985 19.6126 2.79967 20.0137 2.08422 20.7277C1.36878 21.4418 0.966662 22.4102 0.966309 23.4203V29.9984H4.78318C5.28384 29.9982 5.77954 29.8995 6.242 29.7078C6.70444 29.5164 7.12456 29.2357 7.47839 28.8821C7.83221 28.5284 8.11278 28.1086 8.3041 27.6465C8.4954 27.1845 8.5937 26.6895 8.59338 26.1897H8.59827V23.6766L8.58806 23.6779V7.66728L8.5965 7.66928V6.80864C8.59737 6.34974 8.78002 5.90981 9.10457 5.58488C9.42911 5.25995 9.86921 5.0764 10.3288 5.07429H16.9536V6.80864C16.9522 7.26734 16.7689 7.70681 16.4439 8.03094C16.1188 8.35508 15.6784 8.53752 15.219 8.53833H9.38049V10.6144H15.2182C16.2294 10.6145 17.1993 10.2134 17.9144 9.4995C18.6295 8.78557 19.0314 7.81726 19.0315 6.80754V3L10.3279 3.00044ZM6.51461 14.0771H3.04864V12.3474C3.0494 11.888 3.23226 11.4475 3.55729 11.1223C3.8823 10.7971 4.32304 10.6135 4.78318 10.6117H6.5155L6.51461 14.0771ZM6.51461 26.1916C6.51385 26.6502 6.33114 27.09 6.00649 27.4144C5.68183 27.7389 5.24165 27.9218 4.78229 27.923H3.04775V23.4214C3.04817 22.9624 3.23112 22.5224 3.55638 22.198C3.88165 21.8737 4.32259 21.6916 4.78229 21.6917H6.51461V26.1916ZM9.38049 16.1532H13.7557V17.8846C13.754 18.3433 13.5706 18.7826 13.2456 19.1066C12.9207 19.4307 12.4804 19.6132 12.0211 19.6143H9.38049V21.6917H12.022C12.5229 21.692 13.0189 21.5937 13.4816 21.4024C13.9444 21.2112 14.3649 20.9307 14.719 20.5771C15.0732 20.2235 15.3541 19.8036 15.5456 19.3416C15.7372 18.8795 15.8356 18.3843 15.8354 17.8842H15.8371V14.0767H9.38049V16.1532Z" fill="url(#paint0_linear_1985_3618)"/>
</g>
<path d="M38.8157 24H36.5597V5.856H38.8157V24ZM34.3277 14.472H31.6877V24H29.4317V14.472H27.1757V12.624H29.4317V10.248C29.4317 9.576 29.5037 8.96 29.6477 8.4C29.8077 7.824 30.0557 7.328 30.3917 6.912C30.7437 6.496 31.1837 6.168 31.7117 5.928C32.2557 5.688 32.9117 5.568 33.6797 5.568C34.2237 5.568 34.6957 5.624 35.0957 5.736L34.8317 7.68C34.6557 7.632 34.4797 7.592 34.3037 7.56C34.1277 7.528 33.9277 7.512 33.7037 7.512C33.2717 7.512 32.9197 7.592 32.6477 7.752C32.3917 7.896 32.1917 8.096 32.0477 8.352C31.9037 8.608 31.8077 8.904 31.7597 9.24C31.7117 9.56 31.6877 9.896 31.6877 10.248V12.624H34.3277V14.472ZM54.277 18.288C54.277 19.168 54.117 19.976 53.797 20.712C53.493 21.448 53.061 22.088 52.501 22.632C51.957 23.16 51.309 23.576 50.557 23.88C49.805 24.168 48.997 24.312 48.133 24.312C47.269 24.312 46.461 24.168 45.709 23.88C44.957 23.576 44.309 23.16 43.765 22.632C43.221 22.088 42.789 21.448 42.469 20.712C42.165 19.976 42.013 19.168 42.013 18.288C42.013 17.408 42.165 16.608 42.469 15.888C42.789 15.152 43.221 14.52 43.765 13.992C44.309 13.464 44.957 13.056 45.709 12.768C46.461 12.464 47.269 12.312 48.133 12.312C48.997 12.312 49.805 12.464 50.557 12.768C51.309 13.056 51.957 13.464 52.501 13.992C53.061 14.52 53.493 15.152 53.797 15.888C54.117 16.608 54.277 17.408 54.277 18.288ZM51.925 18.288C51.925 17.744 51.837 17.224 51.661 16.728C51.501 16.232 51.261 15.8 50.941 15.432C50.621 15.048 50.221 14.744 49.741 14.52C49.277 14.296 48.741 14.184 48.133 14.184C47.525 14.184 46.981 14.296 46.501 14.52C46.037 14.744 45.645 15.048 45.325 15.432C45.005 15.8 44.757 16.232 44.581 16.728C44.421 17.224 44.341 17.744 44.341 18.288C44.341 18.832 44.421 19.352 44.581 19.848C44.757 20.344 45.005 20.784 45.325 21.168C45.645 21.552 46.037 21.856 46.501 22.08C46.981 22.304 47.525 22.416 48.133 22.416C48.741 22.416 49.277 22.304 49.741 22.08C50.221 21.856 50.621 21.552 50.941 21.168C51.261 20.784 51.501 20.344 51.661 19.848C51.837 19.352 51.925 18.832 51.925 18.288ZM58.2454 12.624L60.8134 21.312H60.8614L63.5734 12.624H65.9494L68.7094 21.312H68.7574L71.3254 12.624H73.7014L69.9334 24H67.5814L64.7734 15.456H64.7254L61.9414 24H59.5894L55.7974 12.624H58.2454ZM82.1119 15.504C81.8559 15.088 81.4959 14.752 81.0319 14.496C80.5679 14.224 80.0479 14.088 79.4719 14.088C79.2159 14.088 78.9599 14.12 78.7039 14.184C78.4479 14.232 78.2159 14.32 78.0079 14.448C77.8159 14.56 77.6559 14.712 77.5279 14.904C77.4159 15.08 77.3599 15.304 77.3599 15.576C77.3599 16.056 77.5759 16.416 78.0079 16.656C78.4399 16.88 79.0879 17.088 79.9519 17.28C80.4959 17.408 80.9999 17.56 81.4639 17.736C81.9279 17.912 82.3279 18.136 82.6639 18.408C83.0159 18.664 83.2879 18.976 83.4799 19.344C83.6719 19.712 83.7679 20.144 83.7679 20.64C83.7679 21.312 83.6399 21.88 83.3839 22.344C83.1279 22.808 82.7839 23.192 82.3519 23.496C81.9359 23.784 81.4559 23.992 80.9119 24.12C80.3679 24.248 79.8079 24.312 79.2319 24.312C78.3679 24.312 77.5199 24.144 76.6879 23.808C75.8719 23.472 75.1919 22.96 74.6479 22.272L76.2559 20.904C76.5599 21.352 76.9759 21.728 77.5039 22.032C78.0479 22.336 78.6399 22.488 79.2799 22.488C79.5679 22.488 79.8399 22.464 80.0959 22.416C80.3679 22.352 80.6079 22.256 80.8159 22.128C81.0399 22 81.2159 21.832 81.3439 21.624C81.4719 21.416 81.5359 21.152 81.5359 20.832C81.5359 20.304 81.2799 19.912 80.7679 19.656C80.2719 19.4 79.5359 19.16 78.5599 18.936C78.1759 18.84 77.7839 18.728 77.3839 18.6C76.9999 18.456 76.6479 18.264 76.3279 18.024C76.0079 17.784 75.7439 17.488 75.5359 17.136C75.3439 16.768 75.2479 16.32 75.2479 15.792C75.2479 15.184 75.3679 14.664 75.6079 14.232C75.8639 13.784 76.1919 13.424 76.5919 13.152C76.9919 12.864 77.4479 12.656 77.9599 12.528C78.4719 12.384 78.9999 12.312 79.5439 12.312C80.3599 12.312 81.1439 12.472 81.8959 12.792C82.6639 13.112 83.2559 13.576 83.6719 14.184L82.1119 15.504ZM94.6 15.504C94.36 15.136 94 14.832 93.52 14.592C93.04 14.336 92.528 14.208 91.984 14.208C91.392 14.208 90.864 14.32 90.4 14.544C89.952 14.768 89.568 15.072 89.248 15.456C88.928 15.824 88.68 16.256 88.504 16.752C88.344 17.248 88.264 17.768 88.264 18.312C88.264 18.856 88.344 19.376 88.504 19.872C88.68 20.368 88.928 20.808 89.248 21.192C89.568 21.56 89.96 21.856 90.424 22.08C90.888 22.304 91.416 22.416 92.008 22.416C92.584 22.416 93.104 22.304 93.568 22.08C94.048 21.856 94.44 21.552 94.744 21.168L96.256 22.536C95.776 23.096 95.176 23.536 94.456 23.856C93.736 24.16 92.92 24.312 92.008 24.312C91.128 24.312 90.312 24.168 89.56 23.88C88.824 23.592 88.184 23.192 87.64 22.68C87.096 22.152 86.664 21.52 86.344 20.784C86.04 20.048 85.888 19.224 85.888 18.312C85.888 17.416 86.04 16.6 86.344 15.864C86.648 15.128 87.072 14.496 87.616 13.968C88.16 13.44 88.8 13.032 89.536 12.744C90.288 12.456 91.096 12.312 91.96 12.312C92.76 12.312 93.552 12.472 94.336 12.792C95.136 13.112 95.768 13.576 96.232 14.184L94.6 15.504ZM105.571 16.632C105.571 15.784 105.315 15.16 104.803 14.76C104.291 14.344 103.611 14.136 102.763 14.136C102.123 14.136 101.515 14.264 100.939 14.52C100.379 14.76 99.9074 15.072 99.5234 15.456L98.3234 14.016C98.8834 13.488 99.5634 13.072 100.363 12.768C101.179 12.464 102.051 12.312 102.979 12.312C103.795 12.312 104.499 12.432 105.091 12.672C105.699 12.896 106.195 13.208 106.579 13.608C106.963 14.008 107.251 14.48 107.443 15.024C107.635 15.568 107.731 16.152 107.731 16.776V21.744C107.731 22.128 107.739 22.536 107.755 22.968C107.787 23.384 107.835 23.728 107.899 24H105.859C105.731 23.456 105.667 22.912 105.667 22.368H105.595C105.179 22.976 104.651 23.448 104.011 23.784C103.387 24.12 102.643 24.288 101.779 24.288C101.331 24.288 100.859 24.224 100.363 24.096C99.8834 23.984 99.4434 23.792 99.0434 23.52C98.6434 23.248 98.3074 22.888 98.0354 22.44C97.7794 21.992 97.6514 21.44 97.6514 20.784C97.6514 19.92 97.8834 19.24 98.3474 18.744C98.8114 18.232 99.4194 17.848 100.171 17.592C100.923 17.32 101.771 17.144 102.715 17.064C103.659 16.984 104.611 16.944 105.571 16.944V16.632ZM105.019 18.576C104.459 18.576 103.875 18.6 103.267 18.648C102.675 18.696 102.131 18.792 101.635 18.936C101.155 19.08 100.755 19.296 100.435 19.584C100.115 19.872 99.9554 20.256 99.9554 20.736C99.9554 21.072 100.019 21.352 100.147 21.576C100.291 21.8 100.475 21.984 100.699 22.128C100.923 22.272 101.171 22.376 101.443 22.44C101.715 22.488 101.995 22.512 102.283 22.512C103.339 22.512 104.147 22.2 104.707 21.576C105.283 20.936 105.571 20.136 105.571 19.176V18.576H105.019ZM113.803 24H111.547V5.856H113.803V24ZM126.062 17.304C126.046 16.856 125.966 16.44 125.822 16.056C125.694 15.656 125.494 15.312 125.222 15.024C124.966 14.736 124.638 14.512 124.238 14.352C123.854 14.176 123.398 14.088 122.87 14.088C122.39 14.088 121.934 14.176 121.502 14.352C121.086 14.512 120.718 14.736 120.398 15.024C120.094 15.312 119.838 15.656 119.63 16.056C119.438 16.44 119.326 16.856 119.294 17.304H126.062ZM128.342 18.216C128.342 18.344 128.342 18.472 128.342 18.6C128.342 18.728 128.334 18.856 128.318 18.984H119.294C119.31 19.464 119.414 19.92 119.606 20.352C119.814 20.768 120.086 21.136 120.422 21.456C120.758 21.76 121.142 22 121.574 22.176C122.022 22.352 122.494 22.44 122.99 22.44C123.758 22.44 124.422 22.272 124.982 21.936C125.542 21.6 125.982 21.192 126.302 20.712L127.886 21.984C127.278 22.784 126.558 23.376 125.726 23.76C124.91 24.128 123.998 24.312 122.99 24.312C122.126 24.312 121.326 24.168 120.59 23.88C119.854 23.592 119.222 23.192 118.694 22.68C118.166 22.152 117.75 21.52 117.446 20.784C117.142 20.048 116.99 19.232 116.99 18.336C116.99 17.456 117.134 16.648 117.422 15.912C117.726 15.16 118.142 14.52 118.67 13.992C119.198 13.464 119.822 13.056 120.542 12.768C121.262 12.464 122.038 12.312 122.87 12.312C123.702 12.312 124.454 12.448 125.126 12.72C125.814 12.992 126.39 13.384 126.854 13.896C127.334 14.408 127.702 15.032 127.958 15.768C128.214 16.488 128.342 17.304 128.342 18.216ZM144.806 16.632C144.806 15.784 144.55 15.16 144.038 14.76C143.526 14.344 142.846 14.136 141.998 14.136C141.358 14.136 140.75 14.264 140.174 14.52C139.614 14.76 139.142 15.072 138.758 15.456L137.558 14.016C138.118 13.488 138.798 13.072 139.598 12.768C140.414 12.464 141.286 12.312 142.214 12.312C143.03 12.312 143.734 12.432 144.326 12.672C144.934 12.896 145.43 13.208 145.814 13.608C146.198 14.008 146.486 14.48 146.678 15.024C146.87 15.568 146.966 16.152 146.966 16.776V21.744C146.966 22.128 146.974 22.536 146.99 22.968C147.022 23.384 147.07 23.728 147.134 24H145.094C144.966 23.456 144.902 22.912 144.902 22.368H144.83C144.414 22.976 143.886 23.448 143.246 23.784C142.622 24.12 141.878 24.288 141.014 24.288C140.566 24.288 140.094 24.224 139.598 24.096C139.118 23.984 138.678 23.792 138.278 23.52C137.878 23.248 137.542 22.888 137.27 22.44C137.014 21.992 136.886 21.44 136.886 20.784C136.886 19.92 137.118 19.24 137.582 18.744C138.046 18.232 138.654 17.848 139.406 17.592C140.158 17.32 141.006 17.144 141.95 17.064C142.894 16.984 143.846 16.944 144.806 16.944V16.632ZM144.254 18.576C143.694 18.576 143.11 18.6 142.502 18.648C141.91 18.696 141.366 18.792 140.87 18.936C140.39 19.08 139.99 19.296 139.67 19.584C139.35 19.872 139.19 20.256 139.19 20.736C139.19 21.072 139.254 21.352 139.382 21.576C139.526 21.8 139.71 21.984 139.934 22.128C140.158 22.272 140.406 22.376 140.678 22.44C140.95 22.488 141.23 22.512 141.518 22.512C142.574 22.512 143.382 22.2 143.942 21.576C144.518 20.936 144.806 20.136 144.806 19.176V18.576H144.254ZM153.014 24H150.758V12.624H153.014V24ZM153.398 8.52C153.398 8.936 153.246 9.28 152.942 9.552C152.654 9.824 152.302 9.96 151.886 9.96C151.47 9.96 151.118 9.824 150.83 9.552C150.542 9.264 150.398 8.92 150.398 8.52C150.398 8.104 150.542 7.76 150.83 7.488C151.118 7.2 151.47 7.056 151.886 7.056C152.302 7.056 152.654 7.2 152.942 7.488C153.246 7.76 153.398 8.104 153.398 8.52Z" fill="#FCFCFC"/>
<path d="M130.747 22.32C130.747 21.808 130.931 21.368 131.299 21C131.683 20.632 132.139 20.448 132.667 20.448C133.179 20.448 133.627 20.624 134.011 20.976C134.395 21.328 134.587 21.76 134.587 22.272C134.587 22.784 134.395 23.224 134.011 23.592C133.643 23.96 133.195 24.144 132.667 24.144C132.411 24.144 132.163 24.096 131.923 24C131.699 23.904 131.499 23.776 131.323 23.616C131.147 23.456 131.003 23.264 130.891 23.04C130.795 22.816 130.747 22.576 130.747 22.32Z" fill="url(#paint1_linear_1985_3618)"/>
<defs>
<linearGradient id="paint0_linear_1985_3618" x1="-5.68935" y1="-3.65708" x2="21.7887" y2="15.3954" gradientUnits="userSpaceOnUse">
<stop stop-color="#1659DA"/>
<stop offset="1" stop-color="#16CFDA"/>
</linearGradient>
<linearGradient id="paint1_linear_1985_3618" x1="111.919" y1="16.5" x2="112.548" y2="28.558" gradientUnits="userSpaceOnUse">
<stop stop-color="#1659DA"/>
<stop offset="1" stop-color="#16CFDA"/>
</linearGradient>
</defs>
</svg>
