<svg width="469" height="98" viewBox="0 0 469 98" fill="none" xmlns="http://www.w3.org/2000/svg">
<g clip-path="url(#clip0_36_3)">
<mask id="mask0_36_3" style="mask-type:luminance" maskUnits="userSpaceOnUse" x="0" y="12" width="49" height="74">
<path d="M48.838 12.5H0V85.5H48.838V12.5Z" fill="white"/>
</mask>
<g mask="url(#mask0_36_3)">
<path d="M25.306 12.4999C22.5718 12.5007 19.9499 13.5855 18.0165 15.516C16.0832 17.4464 14.9967 20.0644 14.9959 22.7944V27.4709H10.3122C8.9573 27.4698 7.61543 27.7355 6.36343 28.2527C5.11144 28.7699 3.97388 29.5286 3.01583 30.4853C2.05777 31.4419 1.29804 32.5778 0.7801 33.8279C0.262157 35.078 -0.00383159 36.4179 -0.00264703 37.7708V48.0616H14.9935V57.4148H10.3098C7.57487 57.4144 4.95179 58.4988 3.01744 60.4292C1.0831 62.3598 -0.00411055 64.9782 -0.00506592 67.709V85.4943H10.3146C11.6683 85.4938 13.0085 85.227 14.2588 84.7088C15.5092 84.1911 16.645 83.4323 17.6017 82.4761C18.5583 81.5199 19.3169 80.3848 19.8341 79.1356C20.3514 77.8864 20.6171 76.5482 20.6163 75.1967H20.6295V68.402L20.6019 68.4056V25.1177L20.6247 25.1231V22.7962C20.6271 21.5554 21.1209 20.366 21.9984 19.4875C22.8758 18.6089 24.0657 18.1127 25.3084 18.107H43.2198V22.7962C43.216 24.0363 42.7205 25.2245 41.8416 26.1009C40.9628 26.9773 39.7722 27.4705 38.5301 27.4727H22.7444V33.0858H38.5277C41.2619 33.086 43.8841 32.0017 45.8176 30.0714C47.7511 28.1412 48.8375 25.5232 48.8378 22.7932V12.4987L25.306 12.4999ZM14.9959 42.4479H5.62495V37.7713C5.62701 36.5291 6.1214 35.3383 7.00018 34.4589C7.8789 33.5796 9.07055 33.0833 10.3146 33.0786H14.9983L14.9959 42.4479ZM14.9959 75.2018C14.9938 76.4418 14.4998 77.6309 13.6221 78.5079C12.7443 79.3854 11.5542 79.88 10.3122 79.8831H5.62253V67.7121C5.62367 66.4711 6.11832 65.2815 6.99771 64.4045C7.87715 63.5275 9.06932 63.0351 10.3122 63.0356H14.9959V75.2018ZM22.7444 48.061H34.5736V52.7423C34.569 53.9823 34.0733 55.1701 33.1946 56.0463C32.316 56.9225 31.1258 57.4159 29.8839 57.4189H22.7444V63.0356H29.8863C31.2405 63.0363 32.5815 62.7705 33.8327 62.2534C35.0838 61.7364 36.2207 60.9781 37.1782 60.022C38.1358 59.0659 38.8952 57.9308 39.4131 56.6815C39.9309 55.4322 40.1971 54.0933 40.1964 52.7412H40.2012V42.4467H22.7444V48.061Z" fill="url(#paint0_linear_36_3)"/>
</g>
<path d="M120.19 72H113.422V17.568H120.19V72ZM106.726 43.416H98.806V72H92.038V43.416H85.27V37.872H92.038V30.744C92.038 28.728 92.254 26.88 92.686 25.2C93.166 23.472 93.91 21.984 94.918 20.736C95.974 19.488 97.294 18.504 98.878 17.784C100.51 17.064 102.478 16.704 104.782 16.704C106.414 16.704 107.83 16.872 109.03 17.208L108.238 23.04C107.71 22.896 107.182 22.776 106.654 22.68C106.126 22.584 105.526 22.536 104.854 22.536C103.558 22.536 102.502 22.776 101.686 23.256C100.918 23.688 100.318 24.288 99.886 25.056C99.454 25.824 99.166 26.712 99.022 27.72C98.878 28.68 98.806 29.688 98.806 30.744V37.872H106.726V43.416ZM166.574 54.864C166.574 57.504 166.094 59.928 165.134 62.136C164.222 64.344 162.926 66.264 161.246 67.896C159.614 69.48 157.67 70.728 155.414 71.64C153.158 72.504 150.734 72.936 148.142 72.936C145.55 72.936 143.126 72.504 140.87 71.64C138.614 70.728 136.67 69.48 135.038 67.896C133.406 66.264 132.11 64.344 131.15 62.136C130.238 59.928 129.782 57.504 129.782 54.864C129.782 52.224 130.238 49.824 131.15 47.664C132.11 45.456 133.406 43.56 135.038 41.976C136.67 40.392 138.614 39.168 140.87 38.304C143.126 37.392 145.55 36.936 148.142 36.936C150.734 36.936 153.158 37.392 155.414 38.304C157.67 39.168 159.614 40.392 161.246 41.976C162.926 43.56 164.222 45.456 165.134 47.664C166.094 49.824 166.574 52.224 166.574 54.864ZM159.518 54.864C159.518 53.232 159.254 51.672 158.726 50.184C158.246 48.696 157.526 47.4 156.566 46.296C155.606 45.144 154.406 44.232 152.966 43.56C151.574 42.888 149.966 42.552 148.142 42.552C146.318 42.552 144.686 42.888 143.246 43.56C141.854 44.232 140.678 45.144 139.718 46.296C138.758 47.4 138.014 48.696 137.486 50.184C137.006 51.672 136.766 53.232 136.766 54.864C136.766 56.496 137.006 58.056 137.486 59.544C138.014 61.032 138.758 62.352 139.718 63.504C140.678 64.656 141.854 65.568 143.246 66.24C144.686 66.912 146.318 67.248 148.142 67.248C149.966 67.248 151.574 66.912 152.966 66.24C154.406 65.568 155.606 64.656 156.566 63.504C157.526 62.352 158.246 61.032 158.726 59.544C159.254 58.056 159.518 56.496 159.518 54.864ZM178.479 37.872L186.183 63.936H186.327L194.463 37.872H201.591L209.871 63.936H210.015L217.719 37.872H224.847L213.543 72H206.487L198.063 46.368H197.919L189.567 72H182.511L171.135 37.872H178.479ZM250.079 46.512C249.311 45.264 248.231 44.256 246.839 43.488C245.447 42.672 243.887 42.264 242.159 42.264C241.391 42.264 240.623 42.36 239.855 42.552C239.087 42.696 238.391 42.96 237.767 43.344C237.191 43.68 236.711 44.136 236.327 44.712C235.991 45.24 235.823 45.912 235.823 46.728C235.823 48.168 236.471 49.248 237.767 49.968C239.063 50.64 241.007 51.264 243.599 51.84C245.231 52.224 246.743 52.68 248.135 53.208C249.527 53.736 250.727 54.408 251.735 55.224C252.791 55.992 253.607 56.928 254.183 58.032C254.759 59.136 255.047 60.432 255.047 61.92C255.047 63.936 254.663 65.64 253.895 67.032C253.127 68.424 252.095 69.576 250.799 70.488C249.551 71.352 248.111 71.976 246.479 72.36C244.847 72.744 243.167 72.936 241.439 72.936C238.847 72.936 236.303 72.432 233.807 71.424C231.359 70.416 229.319 68.88 227.687 66.816L232.511 62.712C233.423 64.056 234.671 65.184 236.255 66.096C237.887 67.008 239.663 67.464 241.583 67.464C242.447 67.464 243.263 67.392 244.031 67.248C244.847 67.056 245.567 66.768 246.191 66.384C246.863 66 247.391 65.496 247.775 64.872C248.159 64.248 248.351 63.456 248.351 62.496C248.351 60.912 247.583 59.736 246.047 58.968C244.559 58.2 242.351 57.48 239.423 56.808C238.271 56.52 237.095 56.184 235.895 55.8C234.743 55.368 233.687 54.792 232.727 54.072C231.767 53.352 230.975 52.464 230.351 51.408C229.775 50.304 229.487 48.96 229.487 47.376C229.487 45.552 229.847 43.992 230.567 42.696C231.335 41.352 232.319 40.272 233.519 39.456C234.719 38.592 236.087 37.968 237.623 37.584C239.159 37.152 240.743 36.936 242.375 36.936C244.823 36.936 247.175 37.416 249.431 38.376C251.735 39.336 253.511 40.728 254.759 42.552L250.079 46.512ZM287.543 46.512C286.823 45.408 285.743 44.496 284.303 43.776C282.863 43.008 281.327 42.624 279.695 42.624C277.919 42.624 276.335 42.96 274.943 43.632C273.599 44.304 272.447 45.216 271.487 46.368C270.527 47.472 269.783 48.768 269.255 50.256C268.775 51.744 268.535 53.304 268.535 54.936C268.535 56.568 268.775 58.128 269.255 59.616C269.783 61.104 270.527 62.424 271.487 63.576C272.447 64.68 273.623 65.568 275.015 66.24C276.407 66.912 277.991 67.248 279.767 67.248C281.495 67.248 283.055 66.912 284.447 66.24C285.887 65.568 287.063 64.656 287.975 63.504L292.511 67.608C291.071 69.288 289.271 70.608 287.111 71.568C284.951 72.48 282.503 72.936 279.767 72.936C277.127 72.936 274.679 72.504 272.423 71.64C270.215 70.776 268.295 69.576 266.663 68.04C265.031 66.456 263.735 64.56 262.775 62.352C261.863 60.144 261.407 57.672 261.407 54.936C261.407 52.248 261.863 49.8 262.775 47.592C263.687 45.384 264.959 43.488 266.591 41.904C268.223 40.32 270.143 39.096 272.351 38.232C274.607 37.368 277.031 36.936 279.623 36.936C282.023 36.936 284.399 37.416 286.751 38.376C289.151 39.336 291.047 40.728 292.439 42.552L287.543 46.512ZM320.457 49.896C320.457 47.352 319.689 45.48 318.153 44.28C316.617 43.032 314.577 42.408 312.033 42.408C310.113 42.408 308.289 42.792 306.561 43.56C304.881 44.28 303.465 45.216 302.313 46.368L298.713 42.048C300.393 40.464 302.433 39.216 304.833 38.304C307.281 37.392 309.897 36.936 312.681 36.936C315.129 36.936 317.241 37.296 319.017 38.016C320.841 38.688 322.329 39.624 323.481 40.824C324.633 42.024 325.497 43.44 326.073 45.072C326.649 46.704 326.937 48.456 326.937 50.328V65.232C326.937 66.384 326.961 67.608 327.009 68.904C327.105 70.152 327.249 71.184 327.441 72H321.321C320.937 70.368 320.745 68.736 320.745 67.104H320.529C319.281 68.928 317.697 70.344 315.777 71.352C313.905 72.36 311.673 72.864 309.081 72.864C307.737 72.864 306.321 72.672 304.833 72.288C303.393 71.952 302.073 71.376 300.873 70.56C299.673 69.744 298.665 68.664 297.849 67.32C297.081 65.976 296.697 64.32 296.697 62.352C296.697 59.76 297.393 57.72 298.785 56.232C300.177 54.696 302.001 53.544 304.257 52.776C306.513 51.96 309.057 51.432 311.889 51.192C314.721 50.952 317.577 50.832 320.457 50.832V49.896ZM318.801 55.728C317.121 55.728 315.369 55.8 313.545 55.944C311.769 56.088 310.137 56.376 308.649 56.808C307.209 57.24 306.009 57.888 305.049 58.752C304.089 59.616 303.609 60.768 303.609 62.208C303.609 63.216 303.801 64.056 304.185 64.728C304.617 65.4 305.169 65.952 305.841 66.384C306.513 66.816 307.257 67.128 308.073 67.32C308.889 67.464 309.729 67.536 310.593 67.536C313.761 67.536 316.185 66.6 317.865 64.728C319.593 62.808 320.457 60.408 320.457 57.528V55.728H318.801ZM345.152 72H338.384V17.568H345.152V72ZM381.927 51.912C381.879 50.568 381.639 49.32 381.207 48.168C380.823 46.968 380.223 45.936 379.407 45.072C378.639 44.208 377.655 43.536 376.455 43.056C375.303 42.528 373.935 42.264 372.351 42.264C370.911 42.264 369.543 42.528 368.247 43.056C366.999 43.536 365.895 44.208 364.935 45.072C364.023 45.936 363.255 46.968 362.631 48.168C362.055 49.32 361.719 50.568 361.623 51.912H381.927ZM388.767 54.648C388.767 55.032 388.767 55.416 388.767 55.8C388.767 56.184 388.743 56.568 388.695 56.952H361.623C361.671 58.392 361.983 59.76 362.559 61.056C363.183 62.304 363.999 63.408 365.007 64.368C366.015 65.28 367.167 66 368.463 66.528C369.807 67.056 371.223 67.32 372.711 67.32C375.015 67.32 377.007 66.816 378.687 65.808C380.367 64.8 381.687 63.576 382.647 62.136L387.399 65.952C385.575 68.352 383.415 70.128 380.919 71.28C378.471 72.384 375.735 72.936 372.711 72.936C370.119 72.936 367.719 72.504 365.511 71.64C363.303 70.776 361.407 69.576 359.823 68.04C358.239 66.456 356.991 64.56 356.079 62.352C355.167 60.144 354.711 57.696 354.711 55.008C354.711 52.368 355.143 49.944 356.007 47.736C356.919 45.48 358.167 43.56 359.751 41.976C361.335 40.392 363.207 39.168 365.367 38.304C367.527 37.392 369.855 36.936 372.351 36.936C374.847 36.936 377.103 37.344 379.119 38.16C381.183 38.976 382.911 40.152 384.303 41.688C385.743 43.224 386.847 45.096 387.615 47.304C388.383 49.464 388.767 51.912 388.767 54.648ZM438.16 49.896C438.16 47.352 437.392 45.48 435.856 44.28C434.32 43.032 432.28 42.408 429.736 42.408C427.816 42.408 425.992 42.792 424.264 43.56C422.584 44.28 421.168 45.216 420.016 46.368L416.416 42.048C418.096 40.464 420.136 39.216 422.536 38.304C424.984 37.392 427.6 36.936 430.384 36.936C432.832 36.936 434.944 37.296 436.72 38.016C438.544 38.688 440.032 39.624 441.184 40.824C442.336 42.024 443.2 43.44 443.776 45.072C444.352 46.704 444.64 48.456 444.64 50.328V65.232C444.64 66.384 444.664 67.608 444.712 68.904C444.808 70.152 444.952 71.184 445.144 72H439.024C438.64 70.368 438.448 68.736 438.448 67.104H438.232C436.984 68.928 435.4 70.344 433.48 71.352C431.608 72.36 429.376 72.864 426.784 72.864C425.44 72.864 424.024 72.672 422.536 72.288C421.096 71.952 419.776 71.376 418.576 70.56C417.376 69.744 416.368 68.664 415.552 67.32C414.784 65.976 414.4 64.32 414.4 62.352C414.4 59.76 415.096 57.72 416.488 56.232C417.88 54.696 419.704 53.544 421.96 52.776C424.216 51.96 426.76 51.432 429.592 51.192C432.424 50.952 435.28 50.832 438.16 50.832V49.896ZM436.504 55.728C434.824 55.728 433.072 55.8 431.248 55.944C429.472 56.088 427.84 56.376 426.352 56.808C424.912 57.24 423.712 57.888 422.752 58.752C421.792 59.616 421.312 60.768 421.312 62.208C421.312 63.216 421.504 64.056 421.888 64.728C422.32 65.4 422.872 65.952 423.544 66.384C424.216 66.816 424.96 67.128 425.776 67.32C426.592 67.464 427.432 67.536 428.296 67.536C431.464 67.536 433.888 66.6 435.568 64.728C437.296 62.808 438.16 60.408 438.16 57.528V55.728H436.504ZM462.783 72H456.015V37.872H462.783V72ZM463.935 25.56C463.935 26.808 463.479 27.84 462.567 28.656C461.703 29.472 460.647 29.88 459.399 29.88C458.151 29.88 457.095 29.472 456.231 28.656C455.367 27.792 454.935 26.76 454.935 25.56C454.935 24.312 455.367 23.28 456.231 22.464C457.095 21.6 458.151 21.168 459.399 21.168C460.647 21.168 461.703 21.6 462.567 22.464C463.479 23.28 463.935 24.312 463.935 25.56Z" fill="#262626"/>
<path d="M395.985 66.96C395.985 65.424 396.537 64.104 397.641 63C398.793 61.896 400.161 61.344 401.745 61.344C403.281 61.344 404.625 61.872 405.777 62.928C406.929 63.984 407.505 65.28 407.505 66.816C407.505 68.352 406.929 69.672 405.777 70.776C404.673 71.88 403.329 72.432 401.745 72.432C400.977 72.432 400.233 72.288 399.513 72C398.841 71.712 398.241 71.328 397.713 70.848C397.185 70.368 396.753 69.792 396.417 69.12C396.129 68.448 395.985 67.728 395.985 66.96Z" fill="url(#paint1_linear_36_3)"/>
</g>
<defs>
<linearGradient id="paint0_linear_36_3" x1="3.29513" y1="12.4987" x2="58.0207" y2="57.7327" gradientUnits="userSpaceOnUse">
<stop stop-color="#1659DA"/>
<stop offset="1" stop-color="#16CFDA"/>
</linearGradient>
<linearGradient id="paint1_linear_36_3" x1="333" y1="60.5" x2="335.601" y2="95.0451" gradientUnits="userSpaceOnUse">
<stop stop-color="#1659DA"/>
<stop offset="1" stop-color="#16CFDA"/>
</linearGradient>
<clipPath id="clip0_36_3">
<rect width="468.838" height="98" fill="white"/>
</clipPath>
</defs>
</svg>
